<svg width="14" height="14" viewBox="0 0 14 14" fill="none" xmlns="http://www.w3.org/2000/svg">
<path fill-rule="evenodd" clip-rule="evenodd" d="M11.2426 13.6668C10.3299 13.6668 9.53493 12.2797 9.12136 10.2302C8.70783 12.2797 7.9129 13.6668 7.00016 13.6668C6.08743 13.6668 5.2925 12.2797 4.87896 10.2302C4.4654 12.2797 3.67046 13.6668 2.75773 13.6668C1.41887 13.6668 0.333496 10.6821 0.333496 7.00016C0.333496 3.31826 1.41887 0.333496 2.75773 0.333496C3.67046 0.333496 4.4654 1.72064 4.87896 3.77016C5.2925 1.72064 6.08743 0.333496 7.00016 0.333496C7.9129 0.333496 8.70783 1.72064 9.12136 3.77016C9.53493 1.72064 10.3299 0.333496 11.2426 0.333496C12.5815 0.333496 13.6668 3.31826 13.6668 7.00016C13.6668 10.6821 12.5815 13.6668 11.2426 13.6668Z" fill="#02BC77"/>
</svg>
